<svg width="14" height="15" viewBox="0 0 14 15" fill="none" xmlns="http://www.w3.org/2000/svg">
<g clip-path="url(#clip0_24891_1683)">
<rect y="0.682861" width="14" height="14" rx="7" fill="#0029FF"/>
<g clip-path="url(#clip1_24891_1683)">
<path d="M6.62879 9.24746C6.61333 9.23441 6.60201 9.21714 6.59622 9.19775C6.59799 9.21378 6.60432 9.22897 6.61444 9.24152C6.62457 9.25407 6.63807 9.26347 6.65335 9.2686H6.66364C6.65081 9.26377 6.639 9.2566 6.62879 9.24746ZM6.31854 9.9188V9.94165C6.31853 9.92348 6.32222 9.90549 6.32939 9.88879C6.33656 9.87209 6.34706 9.85703 6.36025 9.84452C6.34772 9.85242 6.33741 9.86338 6.33031 9.87639C6.32321 9.88939 6.31955 9.90399 6.31969 9.9188H6.31854Z" fill="white"/>
<path d="M8.88963 5.82925C8.89012 5.81356 8.88737 5.79795 8.88155 5.78337C8.87573 5.7688 8.86698 5.75558 8.85583 5.74453C8.84468 5.73349 8.83137 5.72486 8.81674 5.71919C8.80211 5.71351 8.78647 5.71091 8.77079 5.71155H8.7308C8.69651 5.71155 8.66223 5.71155 8.62795 5.71155C8.59049 5.71385 8.55311 5.70575 8.51997 5.68812C8.48226 5.66527 8.46798 5.62127 8.46798 5.54871C8.46798 5.22876 8.46798 4.9088 8.46798 4.58884C8.46798 4.48429 8.42284 4.43972 8.31771 4.43915H8.17487C8.16498 4.43977 8.15505 4.43977 8.14516 4.43915C8.11525 4.43474 8.08817 4.419 8.06956 4.39517C8.05094 4.37134 8.04221 4.34126 8.04517 4.31117C8.04517 4.25403 8.04517 4.2009 8.04517 4.14605C8.04694 4.12893 8.04483 4.11163 8.03898 4.09545C8.03313 4.07927 8.0237 4.06461 8.0114 4.05258C7.99909 4.04055 7.98423 4.03146 7.96792 4.02597C7.95161 4.02049 7.93427 4.01876 7.91719 4.02092H6.05745C6.03613 4.02046 6.01494 4.02435 5.99517 4.03235C5.97275 4.0426 5.95403 4.0595 5.94156 4.08077C5.92909 4.10203 5.92347 4.12662 5.92546 4.15119C5.92546 4.19861 5.92546 4.24546 5.92546 4.29345C5.92546 4.40144 5.88318 4.44258 5.7752 4.44258H5.25755C5.23387 4.44227 5.2102 4.4436 5.18671 4.44658L5.16785 4.45L5.15414 4.454C5.13421 4.45924 5.11667 4.47113 5.10443 4.48771C5.09953 4.49523 5.0955 4.50328 5.09243 4.51171C5.08187 4.54766 5.07743 4.58513 5.07929 4.62255C5.07929 4.84767 5.07072 4.86366 4.86275 4.86423C4.86086 4.86395 4.85893 4.86395 4.85704 4.86423H4.84161C4.81464 4.86378 4.78769 4.8657 4.76105 4.86995H4.74905H4.73763H4.72734L4.71591 4.87452C4.69957 4.88224 4.68601 4.89481 4.67706 4.91051C4.67415 4.91662 4.67167 4.92292 4.66964 4.92937V4.93222L4.66621 4.94708C4.65977 4.97749 4.65708 5.00858 4.65821 5.03964V8.83455C4.65821 9.0968 4.65821 9.09794 4.91989 9.09852C5.01587 9.09852 5.05987 9.12137 5.07415 9.18993C5.07886 9.21247 5.08097 9.23548 5.08044 9.25849V10.2264C5.07757 10.2451 5.07907 10.2642 5.08482 10.2822C5.09057 10.3003 5.10042 10.3167 5.11358 10.3304C5.12674 10.344 5.14287 10.3543 5.16071 10.3607C5.17855 10.367 5.19762 10.3692 5.21642 10.3669C5.26898 10.3669 5.32154 10.3669 5.37411 10.3669C5.39774 10.3648 5.42144 10.3701 5.44191 10.3821C5.46239 10.3941 5.47863 10.4121 5.48838 10.4338C5.49728 10.4545 5.50176 10.4769 5.50152 10.4995C5.50152 10.5349 5.50152 10.5703 5.50152 10.6057V10.6269C5.50152 10.7497 5.5438 10.7914 5.6695 10.7914C5.71178 10.7914 5.7552 10.7914 5.79748 10.7914C5.8186 10.7899 5.83975 10.7939 5.85881 10.8032C5.87786 10.8124 5.89415 10.8265 5.90604 10.844C5.91826 10.8658 5.92475 10.8904 5.92489 10.9154C5.92489 10.9577 5.92489 11.0005 5.92489 11.0428C5.92489 11.0582 5.92489 11.0731 5.92489 11.088C5.92437 11.1049 5.92741 11.1218 5.93381 11.1375C5.94021 11.1531 5.94984 11.1673 5.96206 11.1791C5.97429 11.1908 5.98884 11.1998 6.00477 11.2056C6.02071 11.2114 6.03768 11.2137 6.05459 11.2125C6.10773 11.2125 6.15972 11.2125 6.21228 11.2125C6.23098 11.2117 6.24965 11.2146 6.2672 11.2211C6.28476 11.2276 6.30086 11.2375 6.31455 11.2502C6.33762 11.2771 6.3502 11.3114 6.34998 11.3468C6.34998 11.3925 6.34998 11.4382 6.34998 11.4839C6.34998 11.493 6.34998 11.5028 6.34998 11.5119C6.3488 11.5282 6.35113 11.5446 6.35682 11.5599C6.36251 11.5753 6.37142 11.5892 6.38296 11.6008C6.3945 11.6124 6.40839 11.6213 6.42369 11.6271C6.439 11.6329 6.45536 11.6353 6.47168 11.6342C6.67165 11.6342 6.87162 11.6342 7.07159 11.6342C7.08794 11.6355 7.10439 11.6333 7.11982 11.6277C7.13525 11.6222 7.1493 11.6133 7.16101 11.6018C7.17272 11.5903 7.18181 11.5765 7.18768 11.5611C7.19355 11.5458 7.19604 11.5294 7.195 11.513C7.195 11.4559 7.195 11.4028 7.195 11.3474C7.19351 11.3292 7.196 11.311 7.2023 11.294C7.20859 11.2769 7.21854 11.2615 7.23144 11.2487C7.24434 11.2359 7.25989 11.2261 7.27699 11.2199C7.29408 11.2138 7.31232 11.2114 7.33042 11.2131H7.47268C7.57495 11.2131 7.61666 11.1708 7.61781 11.0674C7.61781 11.0251 7.61781 10.9823 7.61781 10.9394C7.61781 10.872 7.60181 10.8314 7.56467 10.8103C7.54922 10.8021 7.53234 10.7971 7.51496 10.7954H6.85734C6.8343 10.7954 6.81221 10.7863 6.79593 10.77C6.77964 10.7537 6.77049 10.7316 6.77049 10.7086V10.504C6.77167 10.4846 6.76866 10.4652 6.76166 10.4471C6.75466 10.4289 6.74384 10.4125 6.72993 10.3989C6.7087 10.381 6.68225 10.3703 6.65451 10.3686H6.4054C6.38237 10.3686 6.36028 10.3595 6.34399 10.3432C6.3277 10.3269 6.31855 10.3048 6.31855 10.2818V10.1321C6.31638 10.1108 6.31543 10.0895 6.3157 10.0681L6.31855 9.95954V9.91498C6.3186 9.9 6.32252 9.88529 6.32993 9.87228C6.33733 9.85926 6.34798 9.84839 6.36083 9.8407C6.38232 9.8206 6.40983 9.80815 6.43911 9.80528H7.53325C7.55605 9.80575 7.57813 9.79729 7.59478 9.7817C7.61143 9.76612 7.62134 9.74464 7.62238 9.72186V9.35619C7.62232 9.33775 7.61635 9.3198 7.60535 9.30499C7.59435 9.29019 7.57889 9.2793 7.56124 9.27392C7.55259 9.27098 7.54352 9.26943 7.53439 9.26935H6.65736C6.64208 9.26422 6.62857 9.25482 6.61845 9.24227C6.60833 9.22972 6.60201 9.21453 6.60023 9.1985C6.59728 9.18926 6.59574 9.17963 6.59566 9.16993V8.84826C6.5956 8.83958 6.59675 8.83092 6.59909 8.82255C6.59925 8.80753 6.60327 8.79281 6.61078 8.7798C6.61828 8.76679 6.62901 8.75593 6.64194 8.74828C6.65557 8.74009 6.67117 8.73574 6.68708 8.73571H7.62009C7.62009 8.67229 7.62009 8.60887 7.62009 8.54545V8.54202C7.62009 8.46317 7.62009 8.3849 7.62009 8.30605C7.62009 8.27063 7.62009 8.23463 7.62009 8.19921C7.62009 8.15064 7.62009 8.10265 7.62009 8.05409V7.62729C7.62009 7.32504 7.62009 7.02223 7.62009 6.71998C7.62009 6.60057 7.66408 6.55658 7.78235 6.55658C7.96747 6.55658 8.15259 6.55658 8.33714 6.55658C8.35466 6.55848 8.37239 6.55649 8.38907 6.55076C8.40574 6.54503 8.42094 6.53569 8.43359 6.52342C8.44625 6.51115 8.45605 6.49624 8.46228 6.47975C8.46852 6.46326 8.47105 6.4456 8.46969 6.42802C8.46969 6.37089 8.46969 6.31775 8.46969 6.2629C8.46851 6.24599 8.47097 6.22902 8.47689 6.21314C8.48281 6.19726 8.49206 6.18282 8.50402 6.17081C8.51598 6.15879 8.53037 6.14948 8.54623 6.14349C8.56209 6.13749 8.57904 6.13496 8.59596 6.13606C8.65309 6.13606 8.71023 6.13606 8.76736 6.13606C8.7836 6.13662 8.79977 6.13384 8.81489 6.12789C8.83 6.12195 8.84374 6.11298 8.85525 6.10152C8.86676 6.09006 8.8758 6.07636 8.88181 6.06128C8.88783 6.04619 8.89068 6.03003 8.8902 6.01379C8.89192 5.95094 8.89192 5.88924 8.88963 5.82925ZM6.77221 7.24791C6.77221 7.36218 6.72878 7.40446 6.6128 7.40503C6.57052 7.40503 6.5271 7.40503 6.48482 7.40503C6.39226 7.40503 6.35055 7.44845 6.34826 7.5433C6.34826 7.59072 6.34826 7.63871 6.34826 7.68556C6.35066 7.705 6.34854 7.72472 6.34208 7.7432C6.33562 7.76168 6.32498 7.77842 6.311 7.79213C6.29702 7.80583 6.28006 7.81613 6.26146 7.82223C6.24285 7.82832 6.22309 7.83004 6.20371 7.82726C5.8769 7.82726 5.54894 7.82726 5.22213 7.82726C5.12043 7.82726 5.07701 7.78327 5.07587 7.68214V7.67357C5.07587 7.62614 5.07587 7.57929 5.07587 7.53187C5.07451 7.51497 5.07681 7.49797 5.08263 7.48204C5.08845 7.46611 5.09765 7.45163 5.10958 7.43958C5.12152 7.42754 5.13592 7.41821 5.15179 7.41225C5.16767 7.40629 5.18465 7.40382 5.20156 7.40503C5.25356 7.40503 5.30669 7.40503 5.35926 7.40503C5.37815 7.40752 5.39737 7.4056 5.4154 7.39942C5.43343 7.39324 5.44978 7.38296 5.46318 7.3694C5.47657 7.35584 5.48664 7.33936 5.4926 7.32126C5.49856 7.30315 5.50024 7.28392 5.49752 7.26505C5.49752 7.21534 5.49752 7.16564 5.49752 7.11479C5.49876 7.08482 5.491 7.05517 5.47524 7.02965C5.46264 7.01274 5.44599 6.99928 5.42682 6.99049C5.40765 6.9817 5.38658 6.97788 5.36554 6.97938C5.31298 6.97938 5.26041 6.97938 5.20842 6.97938C5.19016 6.98097 5.17178 6.97845 5.15462 6.97202C5.13746 6.96559 5.12196 6.9554 5.10925 6.94219C5.09654 6.92899 5.08695 6.91311 5.08117 6.89572C5.07539 6.87833 5.07358 6.85986 5.07587 6.84168V6.83539C5.07587 6.78797 5.07587 6.73941 5.07587 6.69199C5.07587 6.59943 5.12557 6.55372 5.22327 6.55315H6.60937C6.63842 6.552 6.66745 6.55606 6.69507 6.56515C6.75221 6.58457 6.77221 6.63085 6.77221 6.71541V7.24791Z" fill="white"/>
<path d="M9.31433 8.53828C9.31712 8.55635 9.31568 8.57482 9.31012 8.59224C9.30457 8.60966 9.29505 8.62556 9.28231 8.63868C9.26958 8.6518 9.25398 8.66179 9.23673 8.66787C9.21948 8.67394 9.20106 8.67593 9.18292 8.67369C9.13035 8.67369 9.07779 8.67369 9.02522 8.67369C9.00699 8.6724 8.98869 8.67514 8.97163 8.68171C8.95457 8.68829 8.93917 8.69854 8.92652 8.71173C8.91387 8.72493 8.90428 8.74075 8.89843 8.75807C8.89258 8.77539 8.89061 8.79379 8.89267 8.81195C8.89267 8.86452 8.89267 8.91708 8.89267 8.96908C8.89379 8.98604 8.89136 9.00304 8.88553 9.01901C8.87971 9.03498 8.87062 9.04956 8.85885 9.06181C8.84707 9.07407 8.83287 9.08374 8.81715 9.0902C8.80143 9.09666 8.78454 9.09978 8.76754 9.09934C8.56986 9.09934 8.37274 9.09934 8.17505 9.09934C8.15736 9.10046 8.13963 9.09769 8.12313 9.09121C8.10662 9.08473 8.09174 9.07471 8.07954 9.06185C8.06733 9.04899 8.0581 9.0336 8.05249 9.01678C8.04688 8.99996 8.04503 8.98212 8.04707 8.9645C8.04707 8.62969 8.04707 8.29488 8.04707 7.96007C8.04501 7.94189 8.04711 7.92347 8.05322 7.90622C8.05933 7.88898 8.06929 7.87334 8.08234 7.86052C8.09539 7.84769 8.11119 7.838 8.12854 7.83218C8.14589 7.82636 8.16434 7.82457 8.18248 7.82694C8.34989 7.82694 8.51729 7.82694 8.68527 7.82694H9.17263C9.27091 7.82694 9.31433 7.86922 9.31547 7.9675C9.31471 8.15757 9.31433 8.34783 9.31433 8.53828Z" fill="white"/>
<path d="M6.36221 9.84521C6.34902 9.85772 6.33852 9.87278 6.33134 9.88948C6.32417 9.90618 6.32048 9.92417 6.3205 9.94234V9.91949C6.32048 9.90457 6.32431 9.8899 6.33162 9.87689C6.33893 9.86388 6.34946 9.85297 6.36221 9.84521Z" fill="white"/>
</g>
</g>
<rect x="0.0360825" y="0.718944" width="13.9278" height="13.9278" rx="6.96392" stroke="#ECEFF2" stroke-width="0.0721649"/>
<defs>
<clipPath id="clip0_24891_1683">
<rect y="0.682861" width="14" height="14" rx="7" fill="white"/>
</clipPath>
<clipPath id="clip1_24891_1683">
<rect width="4.65937" height="7.62468" fill="white" transform="translate(4.6532 4.01611)"/>
</clipPath>
</defs>
</svg>
