<svg width="14" height="15" viewBox="0 0 14 15" fill="none" xmlns="http://www.w3.org/2000/svg">
<rect y="0.682861" width="14" height="14" rx="7" fill="#004FF7"/>
<path d="M7.08165 10.2458C5.66273 10.2458 4.51619 9.09826 4.51619 7.68513C4.51619 6.272 5.66589 5.12442 7.08165 5.12442C8.35171 5.12442 9.4064 6.04754 9.6091 7.25834L12.1936 7.25834C11.975 4.62808 9.77063 2.56055 7.07848 2.56055C4.24381 2.56055 1.9444 4.8557 1.9444 7.68513C1.9444 10.5146 4.24381 12.8097 7.07848 12.8097C9.77063 12.8097 11.975 10.7422 12.1936 8.11191L9.60593 8.11191C9.40323 9.32272 8.35171 10.2458 7.08165 10.2458Z" fill="white"/>
</svg>
