<svg width="18" height="19" viewBox="0 0 18 19" fill="none" xmlns="http://www.w3.org/2000/svg">
<path d="M10.3614 10.6427C9.81514 10.6427 9.35377 10.4545 8.97733 10.078C8.60075 9.70146 8.41246 9.23933 8.41246 8.69165C8.41246 8.14411 8.60158 7.68378 8.97982 7.31065C9.35805 6.93752 9.82039 6.75095 10.3668 6.75095C10.9076 6.75095 11.3657 6.93883 11.741 7.31458C12.1165 7.69034 12.3042 8.14964 12.3042 8.69248C12.3042 9.23533 12.1179 9.69608 11.7451 10.0747C11.3726 10.4534 10.9113 10.6427 10.3614 10.6427ZM4.8194 12.711C4.47596 12.711 4.18202 12.5887 3.9376 12.344C3.69317 12.0993 3.57096 11.8051 3.57096 11.4615V5.9255C3.57096 5.58178 3.69317 5.28875 3.9376 5.04639C4.18202 4.80404 4.47596 4.68286 4.8194 4.68286H15.9141C16.2574 4.68286 16.5512 4.80521 16.7956 5.04991C17.0402 5.29462 17.1625 5.58876 17.1625 5.93233V11.4684C17.1625 11.8119 17.0402 12.105 16.7956 12.3475C16.5512 12.5898 16.2574 12.711 15.9141 12.711H4.8194ZM5.84619 11.7176H14.8871C14.8871 11.3527 15.0126 11.0443 15.2636 10.7923C15.5147 10.5402 15.8165 10.4142 16.169 10.4142V6.97487C15.8125 6.97487 15.5097 6.84831 15.2607 6.59518C15.0116 6.34192 14.8871 6.03563 14.8871 5.67631H5.84619C5.84619 6.04115 5.72066 6.34958 5.46961 6.6016C5.21856 6.85363 4.91682 6.97964 4.56441 6.97964V10.419C4.92083 10.419 5.2236 10.5456 5.47272 10.7987C5.7217 11.0518 5.84619 11.3581 5.84619 11.7176ZM14.7261 15.2294H2.2842C1.9409 15.2294 1.64704 15.1071 1.40261 14.8626C1.15805 14.6182 1.03577 14.3243 1.03577 13.981V6.6219H2.02921V13.981C2.02921 14.0446 2.0558 14.1031 2.10896 14.1562C2.16213 14.2094 2.22054 14.236 2.2842 14.236H14.7261V15.2294ZM4.8194 11.7176H4.56441V5.67631H4.8194C4.75021 5.67631 4.69042 5.70151 4.64001 5.75191C4.58961 5.80232 4.56441 5.86211 4.56441 5.9313V11.4626C4.56441 11.5316 4.58961 11.5914 4.64001 11.642C4.69042 11.6924 4.75021 11.7176 4.8194 11.7176Z" fill="#111827"/>
</svg>
