<svg width="14" height="14" viewBox="0 0 14 14" fill="none" xmlns="http://www.w3.org/2000/svg">
<g clip-path="url(#clip0_14303_12185)">
<path d="M2.37581 2.65163C3.19804 2.24502 4.07721 1.94951 4.99636 1.78125C5.10924 1.99696 5.24112 2.28709 5.33205 2.51789C6.30914 2.36259 7.27721 2.36259 8.23634 2.51789C8.32722 2.28709 8.46209 1.99696 8.576 1.78125C9.49616 1.94951 10.3763 2.24611 11.1985 2.65379C12.857 5.30264 13.3066 7.88572 13.0818 10.4321C11.9818 11.3003 10.9158 11.8277 9.86781 12.1728C9.60903 11.7964 9.37826 11.3963 9.17947 10.9746C9.55811 10.8225 9.92075 10.6349 10.2634 10.417C10.1725 10.3458 10.0836 10.2714 9.99766 10.1948C7.90764 11.2281 5.63675 11.2281 3.57169 10.1948C3.48477 10.2714 3.39586 10.3458 3.30594 10.417C3.64962 10.6359 4.01327 10.8236 4.39192 10.9757C4.19311 11.3963 3.96332 11.7975 3.70357 12.1739C2.65454 11.8288 1.58755 11.3014 0.48758 10.4321C0.223823 7.48018 0.938151 4.92084 2.37581 2.65163ZM8.89471 8.8661C9.52214 8.8661 10.0366 8.24698 10.0366 7.49312C10.0366 6.73923 9.53311 6.11909 8.89471 6.11909C8.25631 6.11909 7.74176 6.73815 7.75279 7.49312C7.75175 8.24698 8.25631 8.8661 8.89471 8.8661ZM4.67465 8.8661C5.30206 8.8661 5.81659 8.24698 5.81659 7.49312C5.81659 6.73923 5.31306 6.11909 4.67465 6.11909C4.03626 6.11909 3.52173 6.73815 3.53272 7.49312C3.53272 8.24698 4.03626 8.8661 4.67465 8.8661Z" fill="#C7C9CB"/>
</g>
<defs>
<clipPath id="clip0_14303_12185">
<rect width="12.7021" height="12.7021" fill="white" transform="translate(0.433594 0.626953)"/>
</clipPath>
</defs>
</svg>
