<svg width="15" height="15" viewBox="0 0 15 15" fill="none" xmlns="http://www.w3.org/2000/svg">
<g clip-path="url(#clip0_15223_2865)">
<path d="M7.8042 14.2791C11.6834 14.2791 14.8042 11.1582 14.8042 7.27905C14.8042 3.39986 11.6834 0.279053 7.8042 0.279053C3.92501 0.279053 0.804199 3.39986 0.804199 7.27905C0.804199 11.1582 3.92501 14.2791 7.8042 14.2791Z" fill="#2775CA"/>
<path d="M9.73174 8.38289C9.73174 7.36208 9.11924 7.01208 7.89424 6.86627C7.01924 6.74958 6.84424 6.51627 6.84424 6.10789C6.84424 5.69951 7.13593 5.43708 7.71924 5.43708C8.24424 5.43708 8.53593 5.61208 8.68174 6.04958C8.71093 6.13708 8.79843 6.19539 8.88593 6.19539H9.35255C9.46924 6.19539 9.55674 6.10789 9.55674 5.99127V5.96208C9.44005 5.32039 8.91505 4.82458 8.24424 4.76627V4.06627C8.24424 3.94958 8.15674 3.86208 8.01093 3.83289H7.57343C7.45674 3.83289 7.36924 3.92039 7.34005 4.06627V4.73708C6.46505 4.85377 5.91093 5.43708 5.91093 6.16627C5.91093 7.12877 6.49424 7.50789 7.71924 7.65377C8.53593 7.79958 8.79843 7.97458 8.79843 8.44127C8.79843 8.90796 8.39005 9.22877 7.83593 9.22877C7.07755 9.22877 6.81505 8.90789 6.72755 8.47039C6.69843 8.35377 6.61093 8.29539 6.52343 8.29539H6.02755C5.91093 8.29539 5.82343 8.38289 5.82343 8.49958V8.52877C5.94005 9.25789 6.40674 9.78289 7.36924 9.92877V10.6288C7.36924 10.7454 7.45674 10.8329 7.60255 10.8621H8.04005C8.15674 10.8621 8.24424 10.7746 8.27343 10.6288V9.92877C9.14843 9.78289 9.73174 9.17039 9.73174 8.38289Z" fill="white"/>
<path d="M6.31873 11.4476C4.04373 10.631 2.87704 8.09348 3.72292 5.8476C4.16042 4.6226 5.12292 3.68929 6.31873 3.25179C6.43542 3.19348 6.49373 3.10598 6.49373 2.9601V2.55179C6.49373 2.4351 6.43542 2.3476 6.31873 2.31848C6.28954 2.31848 6.23123 2.31848 6.20204 2.3476C3.43123 3.2226 1.91454 6.16848 2.78954 8.93929C3.31454 10.5726 4.56873 11.8268 6.20204 12.3518C6.31873 12.4101 6.43542 12.3518 6.46454 12.2351C6.49373 12.206 6.49373 12.1768 6.49373 12.1185V11.7101C6.49373 11.6226 6.40623 11.506 6.31873 11.4476ZM9.41042 2.3476C9.29373 2.28929 9.17704 2.3476 9.14792 2.46429C9.11873 2.49348 9.11873 2.5226 9.11873 2.58098V2.98929C9.11873 3.10598 9.20623 3.2226 9.29373 3.28098C11.5687 4.0976 12.7354 6.6351 11.8895 8.88098C11.452 10.106 10.4895 11.0393 9.29373 11.4768C9.17704 11.5351 9.11873 11.6226 9.11873 11.7685V12.1768C9.11873 12.2935 9.17704 12.381 9.29373 12.4101C9.32292 12.4101 9.38123 12.4101 9.41042 12.381C12.1812 11.506 13.6979 8.5601 12.8229 5.78929C12.2979 4.12679 11.0145 2.8726 9.41042 2.3476Z" fill="white"/>
</g>
<defs>
<clipPath id="clip0_15223_2865">
<rect width="14" height="14" fill="white" transform="translate(0.804199 0.279053)"/>
</clipPath>
</defs>
</svg>
