<svg width="15" height="15" viewBox="0 0 15 15" fill="none" xmlns="http://www.w3.org/2000/svg">
<g clip-path="url(#clip0_15223_2900)">
<rect x="0.474976" y="0.279053" width="14" height="14" rx="7" fill="#0029FF"/>
<g clip-path="url(#clip1_15223_2900)">
<path d="M7.1048 8.84536C7.08934 8.83231 7.07802 8.81504 7.07223 8.79565C7.07401 8.81168 7.08033 8.82687 7.09046 8.83942C7.10058 8.85197 7.11408 8.86137 7.12937 8.8665H7.13965C7.12683 8.86167 7.11501 8.8545 7.1048 8.84536ZM6.79456 9.5167V9.53955C6.79454 9.52138 6.79823 9.50339 6.8054 9.48669C6.81257 9.46999 6.82307 9.45493 6.83626 9.44242C6.82373 9.45032 6.81342 9.46129 6.80632 9.47429C6.79922 9.48729 6.79557 9.50189 6.7957 9.5167H6.79456Z" fill="white"/>
<path d="M9.36815 5.42641C9.36863 5.41073 9.36588 5.39511 9.36006 5.38054C9.35425 5.36596 9.34549 5.35274 9.33434 5.3417C9.32319 5.33066 9.30989 5.32203 9.29526 5.31636C9.28063 5.31068 9.26499 5.30808 9.24931 5.30872H9.20931C9.17503 5.30872 9.14075 5.30872 9.10647 5.30872C9.069 5.31102 9.03163 5.30291 8.99848 5.28529C8.96077 5.26244 8.94649 5.21844 8.94649 5.14588C8.94649 4.82592 8.94649 4.50597 8.94649 4.18601C8.94649 4.08145 8.90135 4.03689 8.79623 4.03632H8.65339C8.64349 4.03693 8.63357 4.03693 8.62368 4.03632C8.59376 4.03191 8.56669 4.01616 8.54807 3.99233C8.52946 3.96851 8.52073 3.93843 8.52369 3.90833C8.52369 3.8512 8.52369 3.79806 8.52369 3.74321C8.52546 3.7261 8.52334 3.7088 8.51749 3.69262C8.51164 3.67643 8.50222 3.66178 8.48991 3.64975C8.47761 3.63772 8.46275 3.62862 8.44643 3.62314C8.43012 3.61766 8.41278 3.61593 8.39571 3.61809H6.53596C6.51464 3.61763 6.49345 3.62152 6.47368 3.62952C6.45126 3.63976 6.43254 3.65667 6.42007 3.67793C6.4076 3.6992 6.40198 3.72379 6.40398 3.74836C6.40398 3.79578 6.40398 3.84263 6.40398 3.89062C6.40398 3.99861 6.3617 4.03975 6.25371 4.03975H5.73607C5.71239 4.03943 5.68872 4.04077 5.66522 4.04374L5.64637 4.04717L5.63266 4.05117C5.61272 4.05641 5.59518 4.0683 5.58295 4.08488C5.57805 4.0924 5.57402 4.10045 5.57095 4.10888C5.56039 4.14483 5.55595 4.1823 5.55781 4.21972C5.55781 4.44483 5.54924 4.46083 5.34127 4.4614C5.33937 4.46112 5.33745 4.46112 5.33555 4.4614H5.32012C5.29316 4.46095 5.2662 4.46286 5.23957 4.46712H5.22757H5.21614H5.20585L5.19443 4.47169C5.17809 4.47941 5.16453 4.49198 5.15558 4.50768C5.15266 4.51378 5.15018 4.52008 5.14815 4.52654V4.52939L5.14472 4.54425C5.13829 4.57466 5.1356 4.60574 5.13672 4.63681V8.43172C5.13672 8.69397 5.13672 8.69511 5.3984 8.69568C5.49439 8.69568 5.53838 8.71854 5.55267 8.7871C5.55737 8.80964 5.55949 8.83264 5.55895 8.85566V9.82353C5.55609 9.84225 5.55759 9.86137 5.56334 9.87941C5.56909 9.89745 5.57893 9.91392 5.5921 9.92752C5.60526 9.94113 5.62139 9.95151 5.63923 9.95785C5.65707 9.96419 5.67613 9.96633 5.69493 9.96408C5.7475 9.96408 5.80006 9.96408 5.85262 9.96408C5.87625 9.96199 5.89995 9.96729 5.92043 9.97927C5.9409 9.99125 5.95714 10.0093 5.96689 10.0309C5.9758 10.0517 5.98028 10.0741 5.98004 10.0966C5.98004 10.1321 5.98004 10.1675 5.98004 10.2029V10.224C5.98004 10.3469 6.02232 10.3886 6.14802 10.3886C6.1903 10.3886 6.23372 10.3886 6.276 10.3886C6.29711 10.3871 6.31826 10.3911 6.33732 10.4003C6.35638 10.4096 6.37267 10.4236 6.38455 10.4412C6.39677 10.463 6.40326 10.4876 6.40341 10.5126C6.40341 10.5549 6.40341 10.5977 6.40341 10.64C6.40341 10.6554 6.40341 10.6703 6.40341 10.6851C6.40288 10.7021 6.40592 10.7189 6.41232 10.7346C6.41873 10.7503 6.42835 10.7645 6.44058 10.7762C6.4528 10.788 6.46735 10.797 6.48329 10.8028C6.49923 10.8085 6.5162 10.8109 6.53311 10.8097C6.58624 10.8097 6.63823 10.8097 6.6908 10.8097C6.70949 10.8089 6.72816 10.8118 6.74572 10.8183C6.76328 10.8247 6.77937 10.8346 6.79307 10.8474C6.81613 10.8743 6.82871 10.9085 6.82849 10.944C6.82849 10.9897 6.82849 11.0354 6.82849 11.0811C6.82849 11.0902 6.82849 11.0999 6.82849 11.1091C6.82731 11.1254 6.82965 11.1418 6.83533 11.1571C6.84102 11.1724 6.84994 11.1864 6.86148 11.1979C6.87301 11.2095 6.8869 11.2185 6.90221 11.2243C6.91751 11.23 6.93387 11.2324 6.95019 11.2313C7.15016 11.2313 7.35014 11.2313 7.55011 11.2313C7.56646 11.2327 7.58291 11.2305 7.59834 11.2249C7.61377 11.2193 7.62781 11.2105 7.63952 11.199C7.65123 11.1875 7.66033 11.1736 7.6662 11.1583C7.67206 11.143 7.67456 11.1266 7.67352 11.1102C7.67352 11.0531 7.67352 10.9999 7.67352 10.9445C7.67203 10.9264 7.67452 10.9082 7.68081 10.8912C7.68711 10.8741 7.69705 10.8586 7.70995 10.8459C7.72286 10.8331 7.7384 10.8232 7.7555 10.8171C7.7726 10.8109 7.79084 10.8086 7.80893 10.8103H7.9512C8.05347 10.8103 8.09518 10.768 8.09632 10.6646C8.09632 10.6223 8.09632 10.5794 8.09632 10.5366C8.09632 10.4692 8.08032 10.4286 8.04319 10.4075C8.02774 10.3993 8.01086 10.3943 7.99348 10.3926H7.33585C7.31282 10.3926 7.29073 10.3834 7.27444 10.3672C7.25816 10.3509 7.24901 10.3288 7.24901 10.3058V10.1012C7.25019 10.0818 7.24718 10.0624 7.24018 10.0442C7.23318 10.0261 7.22236 10.0097 7.20844 9.99608C7.18722 9.97813 7.16077 9.96751 7.13302 9.9658H6.88392C6.86088 9.9658 6.83879 9.95665 6.82251 9.94036C6.80622 9.92407 6.79707 9.90199 6.79707 9.87895V9.72926C6.7949 9.708 6.79395 9.68663 6.79421 9.66527L6.79707 9.55671V9.51214C6.79711 9.49717 6.80103 9.48246 6.80844 9.46945C6.81585 9.45643 6.8265 9.44555 6.83935 9.43787C6.86083 9.41777 6.88834 9.40532 6.91762 9.40245H8.01176C8.03456 9.40292 8.05665 9.39446 8.0733 9.37887C8.08995 9.36329 8.09985 9.34181 8.10089 9.31903V8.95336C8.10084 8.93492 8.09487 8.91697 8.08387 8.90216C8.07286 8.88736 8.0574 8.87646 8.03976 8.87109C8.03111 8.86814 8.02204 8.8666 8.0129 8.86652H7.13588C7.12059 8.86139 7.10709 8.85199 7.09697 8.83944C7.08684 8.82688 7.08052 8.8117 7.07874 8.79567C7.0758 8.78643 7.07425 8.7768 7.07417 8.7671V8.44543C7.07411 8.43674 7.07526 8.42809 7.0776 8.41972C7.07776 8.4047 7.08179 8.38998 7.08929 8.37697C7.0968 8.36396 7.10753 8.3531 7.12045 8.34545C7.13409 8.33725 7.14969 8.33291 7.16559 8.33288H8.0986C8.0986 8.26946 8.0986 8.20604 8.0986 8.14262V8.13919C8.0986 8.06034 8.0986 7.98207 8.0986 7.90322C8.0986 7.8678 8.0986 7.8318 8.0986 7.79638C8.0986 7.74781 8.0986 7.69982 8.0986 7.65125V7.22446C8.0986 6.92221 8.0986 6.6194 8.0986 6.31715C8.0986 6.19774 8.1426 6.15374 8.26087 6.15374C8.44599 6.15374 8.63111 6.15374 8.81565 6.15374C8.83318 6.15564 8.85091 6.15366 8.86758 6.14793C8.88425 6.1422 8.89946 6.13286 8.91211 6.12059C8.92477 6.10832 8.93456 6.0934 8.9408 6.07692C8.94704 6.06043 8.94957 6.04277 8.9482 6.02519C8.9482 5.96806 8.9482 5.91492 8.9482 5.86007C8.94703 5.84316 8.94948 5.82619 8.9554 5.81031C8.96133 5.79442 8.97058 5.77999 8.98254 5.76798C8.99449 5.75596 9.00889 5.74665 9.02474 5.74065C9.0406 5.73466 9.05756 5.73213 9.07447 5.73323C9.13161 5.73323 9.18874 5.73323 9.24588 5.73323C9.26211 5.73378 9.27829 5.731 9.2934 5.72506C9.30852 5.71912 9.32226 5.71014 9.33377 5.69869C9.34528 5.68723 9.35432 5.67353 9.36033 5.65844C9.36634 5.64336 9.3692 5.6272 9.36872 5.61096C9.37043 5.54811 9.37043 5.48641 9.36815 5.42641ZM7.25072 6.84508C7.25072 6.95935 7.2073 7.00163 7.09131 7.0022C7.04903 7.0022 7.00561 7.0022 6.96333 7.0022C6.87077 7.0022 6.82907 7.04562 6.82678 7.14047C6.82678 7.18789 6.82678 7.23588 6.82678 7.28273C6.82917 7.30216 6.82706 7.32189 6.82059 7.34037C6.81413 7.35885 6.80349 7.37559 6.78951 7.3893C6.77553 7.403 6.75858 7.4133 6.73997 7.41939C6.72137 7.42549 6.70161 7.42721 6.68223 7.42443C6.35541 7.42443 6.02746 7.42443 5.70065 7.42443C5.59895 7.42443 5.55552 7.38043 5.55438 7.27931V7.27074C5.55438 7.22331 5.55438 7.17646 5.55438 7.12904C5.55302 7.11214 5.55533 7.09514 5.56115 7.07921C5.56697 7.06328 5.57616 7.0488 5.5881 7.03675C5.60004 7.02471 5.61443 7.01538 5.63031 7.00942C5.64618 7.00346 5.66316 7.00099 5.68008 7.0022C5.73207 7.0022 5.78521 7.0022 5.83777 7.0022C5.85667 7.00469 5.87588 7.00277 5.89391 6.99659C5.91194 6.99041 5.9283 6.98013 5.94169 6.96657C5.95509 6.95301 5.96516 6.93653 5.97112 6.91843C5.97708 6.90032 5.97876 6.88108 5.97604 6.86222C5.97604 6.81251 5.97604 6.7628 5.97604 6.71195C5.97727 6.68199 5.96951 6.65234 5.95375 6.62682C5.94115 6.60991 5.9245 6.59644 5.90533 6.58766C5.88616 6.57887 5.86509 6.57505 5.84406 6.57654C5.79149 6.57654 5.73893 6.57654 5.68693 6.57654C5.66868 6.57814 5.6503 6.57562 5.63314 6.56919C5.61598 6.56276 5.60047 6.55256 5.58776 6.53936C5.57505 6.52616 5.56546 6.51028 5.55969 6.49289C5.55391 6.4755 5.5521 6.45703 5.55438 6.43885V6.43256C5.55438 6.38514 5.55438 6.33658 5.55438 6.28915C5.55438 6.1966 5.60409 6.15089 5.70179 6.15032H7.08788C7.11694 6.14916 7.14597 6.15323 7.17359 6.16231C7.23072 6.18174 7.25072 6.22802 7.25072 6.31258V6.84508Z" fill="white"/>
<path d="M9.79101 8.13544C9.7938 8.15352 9.79236 8.17199 9.78681 8.18941C9.78125 8.20683 9.77173 8.22273 9.759 8.23585C9.74626 8.24897 9.73066 8.25896 9.71341 8.26503C9.69617 8.27111 9.67775 8.2731 9.6596 8.27085C9.60704 8.27085 9.55447 8.27085 9.50191 8.27085C9.48367 8.26956 9.46537 8.2723 9.44832 8.27888C9.43126 8.28546 9.41586 8.29571 9.40321 8.3089C9.39055 8.3221 9.38096 8.33792 9.37511 8.35524C9.36926 8.37256 9.3673 8.39096 9.36935 8.40912C9.36935 8.46169 9.36935 8.51425 9.36935 8.56624C9.37047 8.5832 9.36804 8.60021 9.36222 8.61618C9.35639 8.63215 9.34731 8.64672 9.33553 8.65898C9.32376 8.67124 9.30956 8.68091 9.29383 8.68737C9.27811 8.69383 9.26122 8.69695 9.24423 8.69651C9.04654 8.69651 8.84943 8.69651 8.65174 8.69651C8.63404 8.69763 8.61632 8.69486 8.59981 8.68838C8.58331 8.6819 8.56843 8.67187 8.55622 8.65901C8.54402 8.64615 8.53478 8.63077 8.52917 8.61395C8.52356 8.59713 8.52171 8.57928 8.52376 8.56167C8.52376 8.22686 8.52376 7.89205 8.52376 7.55724C8.52169 7.53905 8.5238 7.52064 8.52991 7.50339C8.53602 7.48614 8.54598 7.47051 8.55903 7.45768C8.57208 7.44485 8.58787 7.43516 8.60522 7.42935C8.62258 7.42353 8.64102 7.42174 8.65917 7.42411C8.82657 7.42411 8.99398 7.42411 9.16195 7.42411H9.64932C9.74759 7.42411 9.79101 7.46639 9.79216 7.56467C9.79139 7.75473 9.79101 7.94499 9.79101 8.13544Z" fill="white"/>
<path d="M6.83627 9.44141C6.82308 9.45391 6.81258 9.46897 6.8054 9.48567C6.79823 9.50237 6.79454 9.52036 6.79456 9.53854V9.51568C6.79454 9.50076 6.79837 9.48609 6.80568 9.47308C6.81299 9.46007 6.82352 9.44916 6.83627 9.44141Z" fill="white"/>
</g>
</g>
<defs>
<clipPath id="clip0_15223_2900">
<rect x="0.474976" y="0.279053" width="14" height="14" rx="7" fill="white"/>
</clipPath>
<clipPath id="clip1_15223_2900">
<rect width="4.65937" height="7.62468" fill="white" transform="translate(5.12939 3.61414)"/>
</clipPath>
</defs>
</svg>
