<svg width="14" height="13" viewBox="0 0 14 13" fill="none" xmlns="http://www.w3.org/2000/svg">
<g clip-path="url(#clip0_14303_12200)">
<path d="M6.13418 6.95222C6.7778 7.31066 7.09958 7.48944 7.45318 7.48982C7.80672 7.48982 8.12856 7.31141 8.77255 6.95459L12.8702 4.68343C13.0555 4.58091 13.1698 4.39059 13.1698 4.18477C13.1698 3.97894 13.0555 3.78862 12.8702 3.6861L8.77132 1.41372C8.12775 1.05691 7.80591 0.878906 7.45318 0.878906C7.10001 0.878906 6.77817 1.05771 6.13541 1.41492L2.61286 3.37022C2.58439 3.38611 2.56995 3.39406 2.55675 3.40201C1.35492 4.08146 0.612702 5.31917 0.601562 6.66139V6.78612C0.61229 8.12677 1.35327 9.36328 2.55304 10.0435L2.60956 10.0753L4.81187 11.3015C6.10075 12.0187 6.74518 12.3775 7.45318 12.3779C8.16075 12.3779 8.8056 12.0199 10.0949 11.3031L12.4226 10.0089C13.0671 9.65094 13.3893 9.47173 13.5662 9.17655C13.7433 8.88169 13.7433 8.52331 13.7433 7.8065V6.41823C13.7428 6.22273 13.6348 6.0419 13.459 5.94418C13.2833 5.84644 13.0666 5.84604 12.8905 5.94339L8.1112 8.59247C7.78985 8.77045 7.62933 8.85944 7.45275 8.85944C7.27659 8.85944 7.11608 8.77082 6.79473 8.59284L3.56095 6.80283C3.3984 6.71304 3.31753 6.66773 3.25193 6.65978C3.1034 6.64151 2.96065 6.72136 2.90413 6.8549C2.87938 6.91369 2.87979 7.00386 2.88103 7.18469C2.88144 7.317 2.88185 7.38336 2.89506 7.44452C2.92394 7.5808 2.9982 7.70439 3.10671 7.7958C3.15539 7.83713 3.21521 7.87007 3.33445 7.93643L6.79263 9.86117C7.11484 10.0408 7.27616 10.1301 7.45275 10.1301C7.63014 10.1301 7.79108 10.0408 8.11329 9.86154L12.352 7.50535C12.4622 7.44414 12.5171 7.41394 12.5583 7.43656C12.5996 7.45962 12.5996 7.52082 12.5996 7.64319V8.27219C12.5996 8.4514 12.5996 8.54077 12.5554 8.61471C12.5113 8.6886 12.4309 8.7331 12.2696 8.8229L8.77422 10.7659C8.12936 11.1243 7.80715 11.3035 7.45318 11.3031C7.09921 11.3031 6.77656 11.1235 6.13251 10.7647L2.86329 8.9437L2.84018 8.93096C2.15532 8.54437 1.73325 7.83911 1.72871 7.07458V6.47068C1.72871 6.0483 1.96182 5.6581 2.34097 5.44592C2.67681 5.25837 3.09103 5.25798 3.42686 5.44512L6.13461 6.95185L6.13418 6.95222Z" fill="#C7C9CB"/>
</g>
<defs>
<clipPath id="clip0_14303_12200">
<rect width="13.4345" height="11.8224" fill="white" transform="translate(0.433594 0.626953)"/>
</clipPath>
</defs>
</svg>
