<svg width="13" height="13" viewBox="0 0 13 13" fill="none" xmlns="http://www.w3.org/2000/svg">
<g clip-path="url(#clip0_14303_12203)">
<path d="M6.6236 0.626953C5.81123 0.626953 5.00681 0.790934 4.25629 1.10953C3.50575 1.42813 2.8238 1.89511 2.24937 2.4838C1.08925 3.67272 0.4375 5.28525 0.4375 6.96666C0.4375 9.76877 2.21291 12.1462 4.66879 12.9893C4.9781 13.04 5.07708 12.8435 5.07708 12.6723C5.07708 12.5265 5.07708 12.1272 5.07708 11.601C3.36353 11.9814 2.99855 10.7514 2.99855 10.7514C2.71399 10.016 2.31189 9.8195 2.31189 9.8195C1.74895 9.42644 2.35519 9.43912 2.35519 9.43912C2.9738 9.48347 3.30167 10.0921 3.30167 10.0921C3.83986 11.0557 4.74921 10.7704 5.10182 10.6183C5.1575 10.2062 5.31833 9.92726 5.49155 9.76877C4.11823 9.61029 2.67687 9.06504 2.67687 6.64966C2.67687 5.94595 2.91194 5.38171 3.31404 4.9316C3.25218 4.77311 3.03566 4.11378 3.3759 3.25792C3.3759 3.25792 3.89553 3.08675 5.07708 3.90457C5.56578 3.76509 6.09778 3.69536 6.6236 3.69536C7.14942 3.69536 7.68143 3.76509 8.17013 3.90457C9.35167 3.08675 9.87131 3.25792 9.87131 3.25792C10.2115 4.11378 9.99503 4.77311 9.93317 4.9316C10.3353 5.38171 10.5703 5.94595 10.5703 6.64966C10.5703 9.07142 9.12279 9.60392 7.74329 9.76247C7.96599 9.959 8.17013 10.3457 8.17013 10.9353C8.17013 11.7848 8.17013 12.4695 8.17013 12.6723C8.17013 12.8435 8.26911 13.0464 8.5846 12.9893C11.0405 12.1398 12.8097 9.76877 12.8097 6.96666C12.8097 6.1341 12.6497 5.30971 12.3388 4.54055C12.0279 3.77138 11.5723 3.0725 10.9979 2.4838C10.4234 1.89511 9.74146 1.42813 8.9909 1.10953C8.2404 0.790934 7.43596 0.626953 6.6236 0.626953Z" fill="#C7C9CB"/>
</g>
<defs>
<clipPath id="clip0_14303_12203">
<rect width="12.3722" height="12.3722" fill="white" transform="translate(0.4375 0.626953)"/>
</clipPath>
</defs>
</svg>
