<svg width="18" height="18" viewBox="0 0 18 18" fill="none" xmlns="http://www.w3.org/2000/svg">
<g filter="url(#filter0_d_19732_5886)">
<path d="M9.01865 2C10.7609 2.00007 12.4409 2.64816 13.7318 3.81824C15.0227 4.98832 15.8322 6.59672 16.0029 8.3306C16.1737 10.0645 15.6934 11.7999 14.6555 13.1993C13.6176 14.5987 12.0963 15.562 10.3875 15.9019C8.67872 16.2417 6.90459 15.9339 5.4102 15.0382C3.91581 14.1425 2.80799 12.723 2.30222 11.0557C1.79646 9.38847 1.92891 7.59271 2.6738 6.01771C3.4187 4.44271 4.72278 3.20107 6.33241 2.5343C7.18404 2.18152 8.09684 1.99996 9.01865 2Z" fill="white"/>
</g>
<path d="M12.3201 13.6805V12.5824H12.0744V13.4348H6.00432V12.5824H5.75867V13.6805H12.3201Z" fill="#0029FF" stroke="#0029FF" stroke-width="0.122827" stroke-miterlimit="10"/>
<path d="M12.3157 4.20694V5.30501H12.07V4.45259H6.00481V5.30501H5.75916V4.20694H12.3157Z" fill="#0029FF" stroke="#0029FF" stroke-width="0.122827" stroke-miterlimit="10"/>
<path fill-rule="evenodd" clip-rule="evenodd" d="M7.68317 12.558H8.75913V11.6982H9.21851V12.558H10.3006" fill="#0029FF"/>
<path fill-rule="evenodd" clip-rule="evenodd" d="M8.74567 11.6995H7.63776V11.1812H7.08381V10.6592H6.5274V10.2796H7.48669V10.798H8.04187V11.32H9.85234V10.798H10.4038V9.61759H9.29716V9.0968H8.19049V8.5797H7.08381V8.05522H6.5274V7.15613H7.08381V6.63534H7.63776V6.11455H8.71496V5.25476H9.17311V6.11455H10.2552V6.63534H10.8079V7.15613H11.3619V7.53689H10.4038V7.01611H9.85234V6.49532H8.04187V7.01611H7.48669V8.19893H8.59459V8.71726H9.70126V9.23805H10.8079V9.75884H11.3619V10.6592H10.8079V11.1812H10.2552V11.6995H9.14854" fill="#0029FF"/>
<path d="M8.59304 8.07037H7.42126V8.22022H8.59304V8.07037Z" fill="#0029FF"/>
<path d="M9.69787 8.56726H8.58014V8.72325H9.69787V8.56726Z" fill="#0029FF"/>
<path d="M10.805 9.10861H9.69092V9.26215H10.805V9.10861Z" fill="#0029FF"/>
<path d="M8.24788 8.565H7.07611V8.71485H8.24788V8.565Z" fill="#0029FF"/>
<path d="M9.35485 9.06076H8.18799V9.21675H9.35485V9.06076Z" fill="#0029FF"/>
<path d="M10.4612 9.60336H9.29431V9.7569H10.4612V9.60336Z" fill="#0029FF"/>
<defs>
<filter id="filter0_d_19732_5886" x="0.920251" y="0.920251" width="16.1962" height="16.1962" filterUnits="userSpaceOnUse" color-interpolation-filters="sRGB">
<feFlood flood-opacity="0" result="BackgroundImageFix"/>
<feColorMatrix in="SourceAlpha" type="matrix" values="0 0 0 0 0 0 0 0 0 0 0 0 0 0 0 0 0 0 127 0" result="hardAlpha"/>
<feOffset/>
<feGaussianBlur stdDeviation="0.539874"/>
<feComposite in2="hardAlpha" operator="out"/>
<feColorMatrix type="matrix" values="0 0 0 0 0 0 0 0 0 0 0 0 0 0 0 0 0 0 0.95 0"/>
<feBlend mode="normal" in2="BackgroundImageFix" result="effect1_dropShadow_19732_5886"/>
<feBlend mode="normal" in="SourceGraphic" in2="effect1_dropShadow_19732_5886" result="shape"/>
</filter>
</defs>
</svg>
