<svg width="14" height="14" viewBox="0 0 14 14" fill="none" xmlns="http://www.w3.org/2000/svg">
<g clip-path="url(#clip0_19732_5866)">
<path d="M7.00152 5.76277e-09C8.73953 7.05196e-05 10.4154 0.646581 11.7031 1.8138C12.9909 2.98103 13.7984 4.5855 13.9688 6.31515C14.1391 8.0448 13.66 9.77597 12.6246 11.1719C11.5892 12.5679 10.0717 13.5289 8.36704 13.8679C6.66241 14.207 4.89262 13.8999 3.40187 13.0064C1.91113 12.1128 0.806016 10.6968 0.301487 9.03361C-0.203043 7.37044 -0.0709173 5.57906 0.672158 4.0079C1.41523 2.43674 2.71613 1.19814 4.32183 0.532992C5.17139 0.181073 6.08196 -3.73022e-05 7.00152 5.76277e-09Z" fill="#0029FF"/>
<path d="M10.1743 11.652V10.5566H9.92927V11.407H3.87396V10.5566H3.62891V11.652H10.1743Z" fill="white" stroke="white" stroke-width="0.122528" stroke-miterlimit="10"/>
<path d="M10.3374 2.20117V3.29656H10.0923V2.44623H4.04193V3.29656H3.79688V2.20117H10.3374Z" fill="white" stroke="white" stroke-width="0.122528" stroke-miterlimit="10"/>
<path fill-rule="evenodd" clip-rule="evenodd" d="M6.79879 9.87433H5.69359V9.35727H5.14099V8.83653H4.58594V8.45791H5.54288V8.97498H6.0967V9.49572H7.90276V8.97498H8.45291V7.79749H7.34893V7.27797H6.24496V6.76213H5.14099V6.23894H4.58594V5.34204H5.14099V4.82252H5.69359V4.30301H6.76815V3.44531H7.22518V4.30301H8.30465V4.82252H8.85602V5.34204H9.40862V5.72187H8.45291V5.20236H7.90276V4.68284H6.0967V5.20236H5.54288V6.3823H6.64808V6.89936H7.75205V7.41888H8.85602V7.9384H9.40862V8.83653H8.85602V9.35727H8.30465V9.87433H7.20068" fill="white"/>
<path fill-rule="evenodd" clip-rule="evenodd" d="M5.69531 10.7327H6.76865V9.875H7.22691V10.7327H8.30637" fill="white"/>
<path d="M6.65329 6.25391H5.48438V6.40339H6.65329V6.25391Z" fill="white"/>
<path d="M7.74781 6.75H6.63281V6.90561H7.74781V6.75Z" fill="white"/>
<path d="M8.85351 7.28906H7.74219V7.44222H8.85351V7.28906Z" fill="white"/>
<path d="M6.30563 6.74805H5.13672V6.89753H6.30563V6.74805Z" fill="white"/>
<path d="M7.41011 7.24219H6.24609V7.3978H7.41011V7.24219Z" fill="white"/>
<path d="M8.51557 7.78125H7.35156V7.93441H8.51557V7.78125Z" fill="white"/>
</g>
<defs>
<clipPath id="clip0_19732_5866">
<rect width="14" height="14" fill="white"/>
</clipPath>
</defs>
</svg>
