<svg width="29" height="30" viewBox="0 0 29 30" fill="none" xmlns="http://www.w3.org/2000/svg">
<g clip-path="url(#clip0_24883_335)">
<rect y="0.938477" width="28.124" height="28.124" rx="14.062" fill="#0029FF"/>
<g clip-path="url(#clip1_24883_335)">
<path d="M13.3185 18.1438C13.2875 18.1176 13.2648 18.0829 13.2531 18.0439C13.2567 18.0761 13.2694 18.1066 13.2897 18.1319C13.3101 18.1571 13.3372 18.176 13.3679 18.1863H13.3886C13.3628 18.1766 13.3391 18.1622 13.3185 18.1438ZM12.6953 19.4924V19.5383C12.6953 19.5018 12.7027 19.4657 12.7171 19.4321C12.7315 19.3986 12.7526 19.3683 12.7791 19.3432C12.7539 19.3591 12.7332 19.3811 12.7189 19.4072C12.7047 19.4333 12.6973 19.4627 12.6976 19.4924H12.6953Z" fill="white"/>
<path d="M17.8602 11.2771C17.8612 11.2455 17.8556 11.2142 17.844 11.1849C17.8323 11.1556 17.8147 11.1291 17.7923 11.1069C17.7699 11.0847 17.7432 11.0674 17.7138 11.056C17.6844 11.0446 17.653 11.0393 17.6215 11.0406H17.5411C17.4723 11.0406 17.4034 11.0406 17.3345 11.0406C17.2593 11.0452 17.1842 11.029 17.1176 10.9936C17.0418 10.9476 17.0132 10.8593 17.0132 10.7135C17.0132 10.0708 17.0132 9.42801 17.0132 8.78526C17.0132 8.57522 16.9225 8.4857 16.7113 8.48455H16.4243C16.4045 8.48579 16.3845 8.48579 16.3647 8.48455C16.3046 8.4757 16.2502 8.44406 16.2128 8.39619C16.1754 8.34833 16.1578 8.2879 16.1638 8.22745C16.1638 8.11267 16.1638 8.00593 16.1638 7.89575C16.1674 7.86136 16.1631 7.82662 16.1514 7.79411C16.1396 7.7616 16.1207 7.73216 16.096 7.70799C16.0712 7.68382 16.0414 7.66555 16.0086 7.65454C15.9758 7.64353 15.941 7.64006 15.9067 7.64439H12.1707C12.1279 7.64347 12.0853 7.65128 12.0456 7.66734C12.0006 7.68793 11.963 7.72189 11.9379 7.76461C11.9129 7.80732 11.9016 7.85672 11.9056 7.90608C11.9056 8.00134 11.9056 8.09546 11.9056 8.19187C11.9056 8.4088 11.8207 8.49144 11.6037 8.49144H10.5639C10.5163 8.49081 10.4688 8.4935 10.4216 8.49947L10.3837 8.50636L10.3561 8.51439C10.3161 8.52491 10.2809 8.5488 10.2563 8.58211C10.2464 8.59721 10.2383 8.61338 10.2322 8.63031C10.211 8.70253 10.202 8.7778 10.2058 8.85298C10.2058 9.3052 10.1886 9.33734 9.77078 9.33848C9.76697 9.33792 9.7631 9.33792 9.75929 9.33848H9.7283C9.67413 9.33758 9.61998 9.34142 9.56647 9.34996H9.54237H9.51942H9.49875L9.4758 9.35914C9.44298 9.37466 9.41573 9.39991 9.39775 9.43145C9.3919 9.44371 9.38691 9.45637 9.38283 9.46933V9.47507L9.37595 9.50491C9.36301 9.566 9.35762 9.62844 9.35988 9.69085V17.3143C9.35988 17.8411 9.35988 17.8434 9.88555 17.8445C10.0784 17.8445 10.1667 17.8905 10.1954 18.0282C10.2049 18.0735 10.2091 18.1197 10.2081 18.1659V20.1102C10.2023 20.1478 10.2053 20.1862 10.2169 20.2225C10.2284 20.2587 10.2482 20.2918 10.2747 20.3191C10.3011 20.3465 10.3335 20.3673 10.3693 20.3801C10.4052 20.3928 10.4435 20.3971 10.4812 20.3926C10.5868 20.3926 10.6924 20.3926 10.798 20.3926C10.8455 20.3884 10.8931 20.399 10.9342 20.4231C10.9754 20.4472 11.008 20.4834 11.0276 20.5269C11.0455 20.5685 11.0545 20.6135 11.054 20.6589C11.054 20.73 11.054 20.8012 11.054 20.8723V20.9148C11.054 21.1616 11.1389 21.2454 11.3914 21.2454C11.4763 21.2454 11.5636 21.2454 11.6485 21.2454C11.6909 21.2423 11.7334 21.2504 11.7717 21.2689C11.81 21.2875 11.8427 21.3158 11.8666 21.351C11.8911 21.3948 11.9042 21.4442 11.9045 21.4944C11.9045 21.5794 11.9045 21.6654 11.9045 21.7504C11.9045 21.7814 11.9045 21.8112 11.9045 21.8411C11.9034 21.8751 11.9095 21.909 11.9224 21.9405C11.9352 21.972 11.9546 22.0005 11.9791 22.0241C12.0037 22.0476 12.0329 22.0658 12.0649 22.0774C12.097 22.089 12.131 22.0937 12.165 22.0913C12.2717 22.0913 12.3762 22.0913 12.4818 22.0913C12.5193 22.0896 12.5568 22.0955 12.5921 22.1085C12.6274 22.1215 12.6597 22.1414 12.6872 22.167C12.7336 22.221 12.7588 22.2899 12.7584 22.361C12.7584 22.4528 12.7584 22.5446 12.7584 22.6365C12.7584 22.6548 12.7584 22.6743 12.7584 22.6927C12.756 22.7255 12.7607 22.7584 12.7721 22.7892C12.7836 22.82 12.8015 22.8479 12.8247 22.8712C12.8478 22.8945 12.8757 22.9125 12.9065 22.9241C12.9372 22.9357 12.9701 22.9405 13.0029 22.9383C13.4046 22.9383 13.8063 22.9383 14.208 22.9383C14.2409 22.941 14.2739 22.9366 14.3049 22.9254C14.3359 22.9142 14.3641 22.8965 14.3876 22.8734C14.4112 22.8503 14.4294 22.8224 14.4412 22.7916C14.453 22.7608 14.458 22.7279 14.4559 22.695C14.4559 22.5802 14.4559 22.4735 14.4559 22.3621C14.4529 22.3258 14.4579 22.2892 14.4706 22.2549C14.4832 22.2207 14.5032 22.1896 14.5291 22.1639C14.555 22.1382 14.5863 22.1185 14.6206 22.1062C14.655 22.0938 14.6916 22.0891 14.728 22.0924H15.0138C15.2192 22.0924 15.303 22.0075 15.3053 21.7997C15.3053 21.7148 15.3053 21.6287 15.3053 21.5426C15.3053 21.4072 15.2731 21.3257 15.1985 21.2832C15.1675 21.2669 15.1336 21.2568 15.0987 21.2534H13.7776C13.7313 21.2534 13.687 21.235 13.6542 21.2023C13.6215 21.1696 13.6031 21.1252 13.6031 21.0789V20.668C13.6055 20.6291 13.5995 20.59 13.5854 20.5536C13.5714 20.5171 13.5496 20.4841 13.5217 20.4569C13.479 20.4208 13.4259 20.3995 13.3702 20.396H12.8697C12.8235 20.396 12.7791 20.3776 12.7464 20.3449C12.7137 20.3122 12.6953 20.2678 12.6953 20.2216V19.9208C12.6909 19.8781 12.689 19.8352 12.6895 19.7923L12.6953 19.5742V19.4847C12.6954 19.4546 12.7032 19.4251 12.7181 19.3989C12.733 19.3728 12.7544 19.3509 12.7802 19.3355C12.8234 19.2951 12.8786 19.2701 12.9374 19.2643H15.1354C15.1812 19.2653 15.2256 19.2483 15.259 19.217C15.2925 19.1857 15.3124 19.1425 15.3145 19.0968V18.3622C15.3144 18.3251 15.3024 18.2891 15.2803 18.2593C15.2582 18.2296 15.2271 18.2077 15.1917 18.1969C15.1743 18.191 15.1561 18.1879 15.1377 18.1877H13.3759C13.3452 18.1774 13.3181 18.1585 13.2977 18.1333C13.2774 18.1081 13.2647 18.0776 13.2611 18.0454C13.2552 18.0268 13.2521 18.0075 13.2519 17.988V17.3418C13.2518 17.3244 13.2541 17.307 13.2588 17.2902C13.2591 17.26 13.2672 17.2304 13.2823 17.2043C13.2974 17.1782 13.3189 17.1564 13.3449 17.141C13.3723 17.1245 13.4036 17.1158 13.4356 17.1157H15.3099C15.3099 16.9883 15.3099 16.8609 15.3099 16.7335V16.7266C15.3099 16.5682 15.3099 16.411 15.3099 16.2526C15.3099 16.1814 15.3099 16.1091 15.3099 16.038C15.3099 15.9404 15.3099 15.844 15.3099 15.7464V14.8891C15.3099 14.2819 15.3099 13.6736 15.3099 13.0664C15.3099 12.8265 15.3982 12.7382 15.6358 12.7382C16.0077 12.7382 16.3796 12.7382 16.7503 12.7382C16.7855 12.742 16.8211 12.738 16.8546 12.7265C16.8881 12.715 16.9187 12.6962 16.9441 12.6716C16.9695 12.6469 16.9892 12.6169 17.0017 12.5838C17.0142 12.5507 17.0193 12.5152 17.0166 12.4799C17.0166 12.3651 17.0166 12.2584 17.0166 12.1482C17.0142 12.1142 17.0192 12.0802 17.0311 12.0482C17.043 12.0163 17.0615 11.9873 17.0856 11.9632C17.1096 11.9391 17.1385 11.9204 17.1704 11.9083C17.2022 11.8963 17.2363 11.8912 17.2702 11.8934C17.385 11.8934 17.4998 11.8934 17.6146 11.8934C17.6472 11.8945 17.6797 11.8889 17.71 11.877C17.7404 11.8651 17.768 11.847 17.7911 11.824C17.8143 11.801 17.8324 11.7735 17.8445 11.7432C17.8566 11.7129 17.8623 11.6804 17.8613 11.6478C17.8648 11.5215 17.8648 11.3976 17.8602 11.2771ZM13.6066 14.1269C13.6066 14.3565 13.5194 14.4414 13.2864 14.4426C13.2014 14.4426 13.1142 14.4426 13.0293 14.4426C12.8433 14.4426 12.7595 14.5298 12.755 14.7203C12.755 14.8156 12.755 14.912 12.755 15.0061C12.7598 15.0452 12.7555 15.0848 12.7425 15.1219C12.7295 15.159 12.7082 15.1927 12.6801 15.2202C12.652 15.2477 12.6179 15.2684 12.5806 15.2807C12.5432 15.2929 12.5035 15.2964 12.4646 15.2908C11.808 15.2908 11.1492 15.2908 10.4927 15.2908C10.2884 15.2908 10.2012 15.2024 10.1989 14.9992V14.982C10.1989 14.8868 10.1989 14.7926 10.1989 14.6974C10.1962 14.6634 10.2008 14.6293 10.2125 14.5973C10.2242 14.5653 10.2426 14.5362 10.2666 14.512C10.2906 14.4878 10.3195 14.4691 10.3514 14.4571C10.3833 14.4451 10.4174 14.4402 10.4514 14.4426C10.5558 14.4426 10.6626 14.4426 10.7682 14.4426C10.8061 14.4476 10.8447 14.4437 10.881 14.4313C10.9172 14.4189 10.95 14.3983 10.9769 14.371C11.0038 14.3438 11.0241 14.3107 11.0361 14.2743C11.048 14.2379 11.0514 14.1993 11.0459 14.1614C11.0459 14.0615 11.0459 13.9617 11.0459 13.8595C11.0484 13.7993 11.0328 13.7398 11.0012 13.6885C10.9759 13.6545 10.9424 13.6275 10.9039 13.6098C10.8654 13.5922 10.8231 13.5845 10.7808 13.5875C10.6752 13.5875 10.5696 13.5875 10.4652 13.5875C10.4285 13.5907 10.3916 13.5856 10.3571 13.5727C10.3226 13.5598 10.2915 13.5393 10.266 13.5128C10.2404 13.4863 10.2211 13.4544 10.2095 13.4194C10.1979 13.3845 10.1943 13.3474 10.1989 13.3109V13.2983C10.1989 13.203 10.1989 13.1054 10.1989 13.0102C10.1989 12.8242 10.2987 12.7324 10.495 12.7313H13.2795C13.3378 12.729 13.3962 12.7371 13.4516 12.7554C13.5664 12.7944 13.6066 12.8874 13.6066 13.0572V14.1269Z" fill="white"/>
<path d="M18.7114 16.7191C18.717 16.7554 18.7141 16.7925 18.703 16.8275C18.6918 16.8625 18.6727 16.8944 18.6471 16.9208C18.6215 16.9471 18.5902 16.9672 18.5555 16.9794C18.5209 16.9916 18.4839 16.9956 18.4474 16.9911C18.3418 16.9911 18.2362 16.9911 18.1307 16.9911C18.094 16.9885 18.0573 16.994 18.023 17.0072C17.9887 17.0204 17.9578 17.041 17.9324 17.0675C17.907 17.0941 17.8877 17.1258 17.8759 17.1606C17.8642 17.1954 17.8602 17.2324 17.8644 17.2689C17.8644 17.3745 17.8644 17.4801 17.8644 17.5845C17.8666 17.6186 17.8617 17.6527 17.85 17.6848C17.8383 17.7169 17.8201 17.7462 17.7964 17.7708C17.7728 17.7954 17.7442 17.8149 17.7127 17.8278C17.6811 17.8408 17.6471 17.8471 17.613 17.8462C17.2159 17.8462 16.8199 17.8462 16.4228 17.8462C16.3872 17.8484 16.3516 17.8429 16.3185 17.8299C16.2853 17.8168 16.2554 17.7967 16.2309 17.7709C16.2064 17.745 16.1878 17.7141 16.1766 17.6803C16.1653 17.6466 16.1616 17.6107 16.1657 17.5753C16.1657 16.9027 16.1657 16.2301 16.1657 15.5576C16.1615 15.521 16.1658 15.484 16.178 15.4494C16.1903 15.4147 16.2103 15.3833 16.2365 15.3576C16.2627 15.3318 16.2945 15.3123 16.3293 15.3006C16.3642 15.289 16.4013 15.2854 16.4377 15.2901C16.774 15.2901 17.1103 15.2901 17.4477 15.2901H18.4268C18.6242 15.2901 18.7114 15.3751 18.7137 15.5725C18.7122 15.9543 18.7114 16.3365 18.7114 16.7191Z" fill="white"/>
<path d="M12.7791 19.3447C12.7526 19.3698 12.7315 19.4001 12.7171 19.4337C12.7027 19.4672 12.6953 19.5033 12.6953 19.5398V19.4939C12.6953 19.464 12.703 19.4345 12.7177 19.4084C12.7323 19.3822 12.7535 19.3603 12.7791 19.3447Z" fill="white"/>
</g>
</g>
<rect x="0.0724845" y="1.01096" width="27.979" height="27.979" rx="13.9895" stroke="#ECEFF2" stroke-width="0.144969"/>
<defs>
<clipPath id="clip0_24883_335">
<rect y="0.938477" width="28.124" height="28.124" rx="14.062" fill="white"/>
</clipPath>
<clipPath id="clip1_24883_335">
<rect width="9.36" height="15.3169" fill="white" transform="translate(9.34766 7.63477)"/>
</clipPath>
</defs>
</svg>
